<?xml version="1.0" standalone="no"?>
<!DOCTYPE svg PUBLIC "-//W3C//DTD SVG 20010904//EN"
 "http://www.w3.org/TR/2001/REC-SVG-20010904/DTD/svg10.dtd">
<svg version="1.0" xmlns="http://www.w3.org/2000/svg"
 width="260.000000pt" height="260.000000pt" viewBox="0 0 260.000000 260.000000"
 preserveAspectRatio="xMidYMid meet">
<metadata>
Created by potrace 1.14, written by Peter Selinger 2001-2017
</metadata>
<g transform="translate(0.000000,260.000000) scale(0.100000,-0.100000)"
fill="#000000" stroke="none">
<path d="M1590 2508 c-19 -5 -53 -14 -75 -20 -58 -15 -70 -20 -177 -73 -166
-83 -306 -200 -483 -405 -64 -75 -178 -257 -240 -383 -63 -129 -143 -358 -163
-467 -6 -30 -15 -82 -21 -116 -14 -77 -14 -301 -1 -362 6 -26 15 -69 21 -97
13 -60 77 -198 110 -239 86 -106 151 -160 247 -204 76 -35 120 -44 232 -49
248 -12 526 121 760 364 145 149 246 300 325 488 23 54 55 143 66 183 25 90
30 111 39 157 73 375 43 803 -68 980 -29 46 -35 52 -81 84 -47 34 -154 34
-226 0 -137 -63 -287 -193 -377 -327 -131 -194 -124 -325 19 -388 84 -38 84
-38 122 81 78 244 241 500 332 520 96 21 140 -111 142 -425 1 -182 -4 -232
-34 -385 -80 -401 -253 -762 -468 -975 -99 -98 -183 -151 -302 -189 -52 -16
-206 -14 -258 5 -135 47 -219 160 -262 354 -18 82 -20 117 -16 255 3 109 12
191 26 256 102 470 397 948 718 1165 140 96 214 123 356 133 l89 6 -19 22
c-37 43 -106 63 -206 62 -51 -1 -108 -5 -127 -11z"/>
</g>
</svg>
